<svg width="168" height="31" viewBox="0 0 168 31" fill="none" xmlns="http://www.w3.org/2000/svg">
<path d="M166.14 27.6273C166.23 27.9873 166.41 28.2573 166.59 28.5273L167.13 29.2923H164.61C164.925 28.5273 164.925 27.7173 164.7 26.9523L160.875 15.7923H152.865L148.995 26.9523C148.725 27.7173 148.77 28.5273 149.04 29.2923H144.27L144.81 28.5273C144.99 28.2573 145.17 27.9873 145.26 27.6273L153.45 3.95734C153.72 3.14734 153.63 2.24735 153.18 1.52734H158.22V1.57235C157.77 2.29234 157.725 3.14734 157.995 3.91234L166.14 27.6273ZM153.225 14.6673H160.47L156.87 4.18234L153.225 14.6673Z" fill="#030303"/>
<path d="M134.733 21.0574C138.153 22.6774 141.978 25.1074 141.978 29.2474H138.558C138.558 25.8274 137.658 23.6674 134.238 22.0474C131.133 20.5624 127.893 19.0324 127.533 15.7924H123.798V26.8624C123.798 27.6724 124.023 28.4824 124.383 29.1574L124.428 29.2474H119.658C120.108 28.4824 120.378 27.6274 120.378 26.7274V4.00242C120.378 3.10242 120.108 2.24742 119.658 1.48242H120.378H134.733C138.918 1.48242 142.248 5.08242 141.843 9.31242C141.528 13.0474 138.243 15.7924 134.553 15.7924H128.703C129.063 18.3124 131.808 19.6624 134.733 21.0574ZM123.798 14.6224H132.483C135.768 14.6224 138.468 11.9674 138.468 8.63742C138.468 5.35242 135.768 2.65242 132.483 2.65242H123.798V14.6224Z" fill="#030303"/>
<path d="M75.1113 22.002L82.1181 29.1275C85.6195 27.8355 88.5057 25.2742 90.2201 22.002H75.1113Z" fill="#030303"/>
<path d="M83.877 16.884L91.0163 9.89415C89.7286 6.37629 87.1605 3.47616 83.877 1.75586V16.884Z" fill="#030303"/>
<path d="M63.2384 8.90625C62.3952 10.7816 61.9258 12.8613 61.9258 15.0507C61.9258 16.6532 62.1781 18.1966 62.6434 19.6445L73.2487 8.90625H63.2384Z" fill="#030303"/>
<path d="M83.0702 11.3637V1.36341C81.1949 0.520202 79.1152 0.0507812 76.9257 0.0507812C75.3701 0.0507812 73.8699 0.287652 72.459 0.7272L83.0702 11.3637Z" fill="#030303"/>
<path d="M91.9266 15.05C91.9266 13.554 91.7065 12.1095 91.2989 10.7461L80.627 21.1944H90.6141C91.4573 19.3192 91.9266 17.2395 91.9266 15.05Z" fill="#030303"/>
<path d="M70.7812 18.748V28.7383C72.6566 29.5814 74.7363 30.0508 76.9257 30.0508C78.4356 30.0508 79.8929 29.8268 81.2673 29.4118L70.7812 18.748Z" fill="#030303"/>
<path d="M69.9755 13.3691L62.9434 20.4894C64.263 23.8801 66.7802 26.6717 69.9755 28.3458V13.3691Z" fill="#030303"/>
<path d="M78.6749 8.10014L71.612 1.02051C68.1652 2.32659 65.3254 4.86581 63.6309 8.10014H78.6749Z" fill="#030303"/>
<path d="M101.021 3.66641V27.7864H118.526V28.9114H97.6008H96.9258C97.3758 28.1914 97.6008 27.3364 97.6008 26.4364V3.66641C97.6008 2.81141 97.3758 1.95641 96.9258 1.19141H101.696C101.246 1.95641 101.021 2.81141 101.021 3.66641Z" fill="#030303"/>
<path d="M58.0877 27.9424C58.1777 28.0324 58.2227 28.1674 58.3127 28.2574L58.7627 29.2474H53.9927C54.2627 28.5274 54.1727 27.7174 53.7227 27.0874L45.4877 16.3774C41.4827 19.2574 39.4577 22.9924 39.4577 29.2474H35.9927C35.9927 22.4524 40.1777 18.3574 44.7677 15.4324L35.1827 2.87742C35.0477 2.74242 34.9577 2.56242 34.8677 2.33742L34.5977 1.48242H39.3677C38.9627 2.20242 39.0077 3.05742 39.5027 3.68742L47.2877 13.8574C52.0127 10.9324 56.3777 7.46742 56.3777 1.48242H57.5477C57.5477 8.05242 52.7777 11.7874 48.0077 14.7574L58.0877 27.9424Z" fill="#030303"/>
<path d="M31.3637 1.52832C30.9137 2.29332 30.6887 3.14832 30.6887 4.00332V26.8183C30.6887 27.6733 30.9137 28.5283 31.3637 29.2933H26.5938C27.0437 28.5283 27.2687 27.6733 27.2687 26.8183V4.00332C27.2687 3.14832 27.0437 2.29332 26.5938 1.52832H31.3637Z" fill="#030303"/>
<path d="M15.7348 1.52832C19.4248 1.52832 22.7098 4.27332 23.0248 7.96332C23.4298 12.2383 20.0998 15.7933 15.9148 15.7933H4.97977V26.7733C4.97977 27.6733 5.20477 28.5283 5.65477 29.2483H0.884766C1.33477 28.5283 1.55977 27.6733 1.55977 26.7733V4.00332C1.55977 3.14832 1.33477 2.29332 0.884766 1.52832H1.55977H15.7348ZM13.6648 14.6683C16.9498 14.6683 19.6498 11.9683 19.6498 8.68332C19.6498 5.35332 16.9498 2.65332 13.6648 2.65332H4.97977V14.6683H13.6648Z" fill="#030303"/>
</svg>
