<svg width="167" height="31" viewBox="0 0 167 31" fill="none" xmlns="http://www.w3.org/2000/svg">
<path d="M165.256 28.266C165.346 28.626 165.526 28.896 165.706 29.166L166.246 29.931H163.726C164.041 29.166 164.041 28.356 163.816 27.591L159.991 16.431H151.981L148.111 27.591C147.841 28.356 147.886 29.166 148.156 29.931H143.386L143.926 29.166C144.106 28.896 144.286 28.626 144.376 28.266L152.566 4.59602C152.836 3.78602 152.746 2.88602 152.296 2.16602H157.336V2.21102C156.886 2.93102 156.841 3.78602 157.111 4.55102L165.256 28.266ZM152.341 15.306H159.586L155.986 4.82102L152.341 15.306Z" fill="#FCFCFC"/>
<path d="M133.849 21.6961C137.269 23.3161 141.094 25.7461 141.094 29.8861H137.674C137.674 26.4661 136.774 24.3061 133.354 22.6861C130.249 21.2011 127.009 19.6711 126.649 16.4311H122.914V27.5011C122.914 28.3111 123.139 29.1211 123.499 29.7961L123.544 29.8861H118.774C119.224 29.1211 119.494 28.2661 119.494 27.3661V4.64109C119.494 3.7411 119.224 2.88609 118.774 2.12109H119.494H133.849C138.034 2.12109 141.364 5.7211 140.959 9.95109C140.644 13.6861 137.359 16.4311 133.669 16.4311H127.819C128.179 18.9511 130.924 20.3011 133.849 21.6961ZM122.914 15.2611H131.599C134.884 15.2611 137.584 12.6061 137.584 9.2761C137.584 5.9911 134.884 3.29109 131.599 3.29109H122.914V15.2611Z" fill="#FCFCFC"/>
<path d="M74.3385 22.6406L81.3559 29.7662C84.8626 28.4741 87.7532 25.9129 89.4702 22.6406H74.3385Z" fill="#FCFCFC"/>
<path d="M83.1168 17.5226L90.267 10.5328C88.9773 7.01496 86.4053 4.11483 83.1168 2.39453V17.5226Z" fill="#FCFCFC"/>
<path d="M62.4472 9.54492C61.6027 11.4203 61.1326 13.5 61.1326 15.6894C61.1326 17.2919 61.3852 18.8353 61.8512 20.2831L72.4726 9.54492H62.4472Z" fill="#FCFCFC"/>
<path d="M82.3092 12.0023V2.00208C80.4311 1.15887 78.3482 0.689453 76.1554 0.689453C74.5974 0.689453 73.0949 0.926323 71.6819 1.36587L82.3092 12.0023Z" fill="#FCFCFC"/>
<path d="M91.1781 15.6886C91.1781 14.1926 90.9577 12.7482 90.5494 11.3848L79.8613 21.8331H89.8636C90.708 19.9579 91.1781 17.8781 91.1781 15.6886Z" fill="#FCFCFC"/>
<path d="M70.0016 19.3867V29.3769C71.8798 30.22 73.9626 30.6895 76.1554 30.6895C77.6675 30.6895 79.127 30.4655 80.5035 30.0505L70.0016 19.3867Z" fill="#FCFCFC"/>
<path d="M69.194 14.0078L62.1512 21.1281C63.4728 24.5188 65.9939 27.3104 69.194 28.9844V14.0078Z" fill="#FCFCFC"/>
<path d="M77.9076 8.73784L70.8339 1.6582C67.3819 2.96429 64.5378 5.50351 62.8407 8.73784H77.9076Z" fill="#FCFCFC"/>
<path d="M100.135 4.30508V28.4251H117.64V29.5501H96.715H96.04C96.49 28.8301 96.715 27.9751 96.715 27.0751V4.30508C96.715 3.45008 96.49 2.59508 96.04 1.83008H100.81C100.36 2.59508 100.135 3.45008 100.135 4.30508Z" fill="#FCFCFC"/>
<path d="M57.2039 28.5811C57.2939 28.6711 57.3389 28.8061 57.4289 28.8961L57.8789 29.8861H53.1089C53.3789 29.1661 53.2889 28.3561 52.8389 27.7261L44.6039 17.0161C40.5989 19.8961 38.5739 23.6311 38.5739 29.8861H35.1089C35.1089 23.0911 39.2939 18.9961 43.8839 16.0711L34.2989 3.5161C34.1639 3.38109 34.0739 3.20109 33.9839 2.97609L33.7139 2.12109H38.4839C38.0789 2.8411 38.1239 3.6961 38.6189 4.3261L46.4039 14.4961C51.1289 11.5711 55.4939 8.10609 55.4939 2.12109H56.6639C56.6639 8.69109 51.8939 12.4261 47.1239 15.3961L57.2039 28.5811Z" fill="#FCFCFC"/>
<path d="M30.479 2.16602C30.029 2.93102 29.804 3.78602 29.804 4.64102V27.456C29.804 28.311 30.029 29.166 30.479 29.931H25.709C26.159 29.166 26.384 28.311 26.384 27.456V4.64102C26.384 3.78602 26.159 2.93102 25.709 2.16602H30.479Z" fill="#FCFCFC"/>
<path d="M14.85 2.16602C18.54 2.16602 21.825 4.91102 22.14 8.60102C22.545 12.876 19.215 16.431 15.03 16.431H4.095V27.411C4.095 28.311 4.32 29.166 4.77 29.886H0C0.45 29.166 0.675 28.311 0.675 27.411V4.64102C0.675 3.78602 0.45 2.93102 0 2.16602H0.675H14.85ZM12.78 15.306C16.065 15.306 18.765 12.606 18.765 9.32102C18.765 5.99102 16.065 3.29102 12.78 3.29102H4.095V15.306H12.78Z" fill="#FCFCFC"/>
</svg>
