<svg width="107" height="37" viewBox="0 0 107 37" fill="none" xmlns="http://www.w3.org/2000/svg">
<path d="M36.88 27.1484V9.69389H43.2721C44.5107 9.69389 45.5363 9.89844 46.3488 10.3075C47.1613 10.7109 47.7692 11.2592 48.1726 11.9524C48.576 12.6399 48.7777 13.4155 48.7777 14.2791C48.7777 15.0064 48.6442 15.62 48.3772 16.12C48.1101 16.6143 47.7522 17.0121 47.3033 17.3132C46.8601 17.6087 46.3715 17.8246 45.8374 17.9609V18.1314C46.4169 18.1598 46.9823 18.3473 47.5334 18.6939C48.0902 19.0348 48.5505 19.5206 48.9141 20.1513C49.2777 20.782 49.4596 21.549 49.4596 22.4524C49.4596 23.3445 49.2493 24.1456 48.8289 24.8558C48.4141 25.5604 47.7721 26.12 46.9027 26.5348C46.0334 26.9439 44.9226 27.1484 43.5704 27.1484H36.88ZM39.5135 24.8899H43.3147C44.576 24.8899 45.4794 24.6456 46.0249 24.157C46.5704 23.6683 46.8431 23.0575 46.8431 22.3246C46.8431 21.7734 46.7039 21.2678 46.4255 20.8075C46.1471 20.3473 45.7493 19.9808 45.2323 19.7081C44.7209 19.4354 44.113 19.299 43.4084 19.299H39.5135V24.8899ZM39.5135 17.245H43.0419C43.6329 17.245 44.1641 17.1314 44.6357 16.9041C45.113 16.6768 45.4908 16.3587 45.7692 15.9496C46.0533 15.5348 46.1954 15.0462 46.1954 14.4837C46.1954 13.7621 45.9425 13.157 45.4368 12.6683C44.9312 12.1797 44.1556 11.9354 43.1101 11.9354H39.5135V17.245ZM58.0206 27.4126C56.7309 27.4126 55.6201 27.1371 54.6883 26.5859C53.7621 26.0291 53.0462 25.2479 52.5405 24.2422C52.0405 23.2308 51.7905 22.0462 51.7905 20.6882C51.7905 19.3473 52.0405 18.1655 52.5405 17.1428C53.0462 16.12 53.7508 15.3217 54.6542 14.7479C55.5633 14.174 56.6258 13.8871 57.8417 13.8871C58.5803 13.8871 59.2962 14.0092 59.9894 14.2536C60.6826 14.4979 61.3047 14.8814 61.8559 15.4041C62.407 15.9268 62.8417 16.6058 63.1598 17.4411C63.478 18.2706 63.6371 19.2791 63.6371 20.4666V21.37H53.2309V19.4609H61.14C61.14 18.7905 61.0036 18.1967 60.7309 17.6797C60.4581 17.157 60.0746 16.745 59.5803 16.4439C59.0917 16.1428 58.5178 15.9922 57.8587 15.9922C57.1428 15.9922 56.5178 16.1683 55.9837 16.5206C55.4553 16.8672 55.0462 17.3217 54.7564 17.8842C54.4723 18.4411 54.3303 19.0462 54.3303 19.6996V21.1911C54.3303 22.0661 54.4837 22.8104 54.7905 23.424C55.103 24.0376 55.5377 24.5064 56.0945 24.8303C56.6513 25.1484 57.3019 25.3075 58.0462 25.3075C58.5292 25.3075 58.9695 25.2393 59.3672 25.103C59.765 24.9609 60.1087 24.7507 60.3985 24.4723C60.6883 24.1939 60.9098 23.8501 61.0633 23.4411L63.4752 23.8757C63.282 24.5859 62.9354 25.2081 62.4354 25.7422C61.9411 26.2706 61.3189 26.6825 60.5689 26.978C59.8246 27.2678 58.9752 27.4126 58.0206 27.4126ZM66.1918 27.1484V25.4013L73.2827 16.3928V16.2734H66.4219V14.0575H76.4617V15.9155L69.6435 24.8132V24.9325H76.7003V27.1484H66.1918ZM79.7067 27.1484V14.0575H82.255V27.1484H79.7067ZM80.9937 12.0376C80.5505 12.0376 80.1698 11.8899 79.8516 11.5945C79.5391 11.2933 79.3829 10.9354 79.3829 10.5206C79.3829 10.1001 79.5391 9.74219 79.8516 9.44673C80.1698 9.1456 80.5505 8.99503 80.9937 8.99503C81.4368 8.99503 81.8147 9.1456 82.1272 9.44673C82.4454 9.74219 82.6044 10.1001 82.6044 10.5206C82.6044 10.9354 82.4454 11.2933 82.1272 11.5945C81.8147 11.8899 81.4368 12.0376 80.9937 12.0376ZM91.9134 14.0575V16.103H84.5157V14.0575H91.9134ZM86.5441 27.1484V12.5405C86.5441 11.7223 86.7231 11.0433 87.081 10.5036C87.439 9.9581 87.9134 9.55185 88.5043 9.2848C89.0952 9.01207 89.7373 8.87571 90.4304 8.87571C90.9418 8.87571 91.3793 8.91832 91.7429 9.00355C92.1066 9.0831 92.3765 9.15696 92.5526 9.22514L91.956 11.2876C91.8367 11.2536 91.6833 11.2138 91.4958 11.1683C91.3083 11.1172 91.081 11.0916 90.814 11.0916C90.1946 11.0916 89.7515 11.245 89.4844 11.5518C89.2231 11.8587 89.0924 12.3018 89.0924 12.8814V27.1484H86.5441ZM96.1535 32.0575C95.7728 32.0575 95.4262 32.0263 95.1137 31.9638C94.8012 31.907 94.5682 31.8445 94.4148 31.7763L95.0285 29.6882C95.4944 29.8132 95.9091 29.8672 96.2728 29.8501C96.6364 29.8331 96.9574 29.6967 97.2358 29.4411C97.5199 29.1854 97.7699 28.7678 97.9858 28.1882L98.3012 27.3189L93.5114 14.0575H96.2387L99.554 24.2166H99.6904L103.006 14.0575H105.742L100.347 28.8956C100.097 29.5774 99.7785 30.1541 99.3921 30.6257C99.0057 31.103 98.5455 31.4609 98.0114 31.6996C97.4773 31.9382 96.858 32.0575 96.1535 32.0575Z" fill="#030303"/>
<path d="M9.02202 15.6669C12.1638 14.1643 14.6226 11.6144 16.0342 8.42707C15.1235 7.47087 13.9396 6.78786 12.6647 6.37806L11.9817 6.15039C11.9362 6.24146 11.8906 6.37806 11.8906 6.46913C10.7978 9.56542 8.56669 12.0698 5.56147 13.4813C3.46693 14.483 1.91879 16.3044 1.19025 18.49L0.962585 19.173C1.05365 19.2185 1.19026 19.2641 1.28132 19.2641C2.14646 19.5828 3.0116 19.9926 3.8312 20.4935C4.96954 18.4445 6.79087 16.7142 9.02202 15.6669Z" fill="#030303"/>
<path d="M22.2307 15.8496C20.5459 18.3995 18.2237 20.4485 15.3551 21.8145C13.0329 22.9073 11.2571 24.9563 10.4375 27.4152L10.2098 28.1892C11.075 28.9633 12.1222 29.5552 13.2606 29.9195L13.9436 30.1472C13.9891 30.0561 14.0347 29.9195 14.0347 29.8284C15.1275 26.7321 17.3586 24.2278 20.3638 22.8163C22.4584 21.8145 24.052 19.9932 24.735 17.8076L24.9627 17.1246C24.0065 16.8514 23.0958 16.396 22.2307 15.8496Z" fill="#030303"/>
<path d="M8.38227 25.8224C9.52061 23.0903 11.6152 20.8592 14.3016 19.5843C16.7604 18.4004 18.8095 16.579 20.221 14.3479C19.1737 13.3462 18.3086 12.2078 17.6711 10.8418C15.9864 13.9381 13.3454 16.4424 10.1125 17.9906C8.24567 18.8557 6.74307 20.3583 5.8324 22.1797C6.83413 23.1359 7.65374 24.3197 8.29121 25.6402C8.29121 25.6402 8.33674 25.7313 8.38227 25.8224Z" fill="#030303" fill-opacity="0.15"/>
</svg>
