<svg width="149" height="37" viewBox="0 0 149 37" fill="none" xmlns="http://www.w3.org/2000/svg">
<path d="M35.88 9.69389H39.076L44.6329 23.2621H44.8374L50.3942 9.69389H53.5902V27.1484H51.0846V14.5178H50.9226L45.7749 27.1229H43.6954L38.5476 14.5092H38.3857V27.1484H35.88V9.69389ZM61.0242 27.4382C60.1946 27.4382 59.4446 27.2848 58.7742 26.978C58.1037 26.6655 57.5725 26.2138 57.1804 25.6229C56.7941 25.032 56.6009 24.3075 56.6009 23.4496C56.6009 22.7109 56.7429 22.103 57.027 21.6257C57.3111 21.1484 57.6946 20.7706 58.1776 20.4922C58.6606 20.2138 59.2003 20.0036 59.7969 19.8615C60.3935 19.7195 61.0015 19.6115 61.6208 19.5376C62.4049 19.4467 63.0412 19.3729 63.5299 19.3161C64.0185 19.2536 64.3736 19.1541 64.5952 19.0178C64.8168 18.8814 64.9276 18.6598 64.9276 18.353V18.2933C64.9276 17.549 64.7174 16.9723 64.2969 16.5632C63.8821 16.1541 63.2628 15.9496 62.439 15.9496C61.581 15.9496 60.9049 16.1399 60.4106 16.5206C59.9219 16.8956 59.5839 17.3132 59.3964 17.7734L57.0015 17.228C57.2856 16.4325 57.7003 15.7905 58.2458 15.3018C58.7969 14.8075 59.4304 14.4496 60.1464 14.228C60.8623 14.0007 61.6151 13.8871 62.4049 13.8871C62.9276 13.8871 63.4816 13.9496 64.0668 14.0746C64.6577 14.1939 65.2089 14.4155 65.7202 14.7393C66.2373 15.0632 66.6606 15.5263 66.9901 16.1286C67.3196 16.7251 67.4844 17.5007 67.4844 18.4553V27.1484H64.9958V25.3587H64.8935C64.7287 25.6882 64.4816 26.0121 64.152 26.3303C63.8225 26.6484 63.3992 26.9126 62.8821 27.1229C62.3651 27.3331 61.7458 27.4382 61.0242 27.4382ZM61.5782 25.3928C62.2827 25.3928 62.885 25.2536 63.385 24.9751C63.8907 24.6967 64.2742 24.3331 64.5356 23.8842C64.8026 23.4297 64.9361 22.9439 64.9361 22.4268V20.7393C64.8452 20.8303 64.6691 20.9155 64.4077 20.995C64.152 21.0689 63.8594 21.1342 63.5299 21.1911C63.2003 21.2422 62.8793 21.2905 62.5668 21.3359C62.2543 21.3757 61.9929 21.4098 61.7827 21.4382C61.2884 21.5007 60.8367 21.6058 60.4276 21.7536C60.0242 21.9013 59.7003 22.1143 59.456 22.3928C59.2174 22.6655 59.0981 23.0291 59.0981 23.4837C59.0981 24.1143 59.331 24.5916 59.7969 24.9155C60.2628 25.2337 60.8566 25.3928 61.5782 25.3928ZM70.8786 27.1484V14.0575H73.3417V16.1371H73.478C73.7167 15.4325 74.1371 14.8786 74.7394 14.4751C75.3473 14.0661 76.0348 13.8615 76.8019 13.8615C76.961 13.8615 77.1485 13.8672 77.3644 13.8786C77.586 13.8899 77.7593 13.9041 77.8843 13.9212V16.3587C77.782 16.3303 77.6002 16.299 77.3388 16.2649C77.0775 16.2251 76.8161 16.2053 76.5547 16.2053C75.9525 16.2053 75.4155 16.3331 74.9439 16.5888C74.478 16.8388 74.1087 17.1882 73.836 17.6371C73.5633 18.0803 73.4269 18.5859 73.4269 19.1541V27.1484H70.8786ZM82.4333 22.7081L82.4162 19.5973H82.8594L88.0753 14.0575H91.1265L85.1776 20.3643H84.777L82.4333 22.7081ZM80.0895 27.1484V9.69389H82.6378V27.1484H80.0895ZM88.3566 27.1484L83.6691 20.9268L85.4248 19.1456L91.4844 27.1484H88.3566ZM98.5519 27.4126C97.2621 27.4126 96.1513 27.1371 95.2195 26.5859C94.2934 26.0291 93.5775 25.2479 93.0718 24.2422C92.5718 23.2308 92.3218 22.0462 92.3218 20.6882C92.3218 19.3473 92.5718 18.1655 93.0718 17.1428C93.5775 16.12 94.282 15.3217 95.1854 14.7479C96.0945 14.174 97.157 13.8871 98.3729 13.8871C99.1116 13.8871 99.8275 14.0092 100.521 14.2536C101.214 14.4979 101.836 14.8814 102.387 15.4041C102.938 15.9268 103.373 16.6058 103.691 17.4411C104.009 18.2706 104.168 19.2791 104.168 20.4666V21.37H93.7621V19.4609H101.671C101.671 18.7905 101.535 18.1967 101.262 17.6797C100.989 17.157 100.606 16.745 100.112 16.4439C99.6229 16.1428 99.0491 15.9922 98.39 15.9922C97.6741 15.9922 97.0491 16.1683 96.515 16.5206C95.9866 16.8672 95.5775 17.3217 95.2877 17.8842C95.0036 18.4411 94.8616 19.0462 94.8616 19.6996V21.1911C94.8616 22.0661 95.015 22.8104 95.3218 23.424C95.6343 24.0376 96.0689 24.5064 96.6258 24.8303C97.1826 25.1484 97.8331 25.3075 98.5775 25.3075C99.0604 25.3075 99.5008 25.2393 99.8985 25.103C100.296 24.9609 100.64 24.7507 100.93 24.4723C101.22 24.1939 101.441 23.8501 101.595 23.4411L104.006 23.8757C103.813 24.5859 103.467 25.2081 102.967 25.7422C102.472 26.2706 101.85 26.6825 101.1 26.978C100.356 27.2678 99.5064 27.4126 98.5519 27.4126ZM112.51 27.4126C111.283 27.4126 110.212 27.1314 109.297 26.5689C108.382 26.0064 107.672 25.2195 107.166 24.2081C106.661 23.1967 106.408 22.0149 106.408 20.6626C106.408 19.3047 106.661 18.1172 107.166 17.1001C107.672 16.0831 108.382 15.2933 109.297 14.7308C110.212 14.1683 111.283 13.8871 112.51 13.8871C113.737 13.8871 114.808 14.1683 115.723 14.7308C116.638 15.2933 117.348 16.0831 117.854 17.1001C118.359 18.1172 118.612 19.3047 118.612 20.6626C118.612 22.0149 118.359 23.1967 117.854 24.2081C117.348 25.2195 116.638 26.0064 115.723 26.5689C114.808 27.1314 113.737 27.4126 112.51 27.4126ZM112.519 25.2734C113.314 25.2734 113.973 25.0632 114.496 24.6428C115.019 24.2223 115.405 23.6626 115.655 22.9638C115.911 22.2649 116.038 21.495 116.038 20.6541C116.038 19.8189 115.911 19.0518 115.655 18.353C115.405 17.6484 115.019 17.0831 114.496 16.657C113.973 16.2308 113.314 16.0178 112.519 16.0178C111.717 16.0178 111.053 16.2308 110.524 16.657C110.001 17.0831 109.612 17.6484 109.357 18.353C109.107 19.0518 108.982 19.8189 108.982 20.6541C108.982 21.495 109.107 22.2649 109.357 22.9638C109.612 23.6626 110.001 24.2223 110.524 24.6428C111.053 25.0632 111.717 25.2734 112.519 25.2734ZM127.568 14.0575V16.103H120.417V14.0575H127.568ZM122.335 10.9212H124.883V23.3047C124.883 23.799 124.957 24.1712 125.104 24.4212C125.252 24.6655 125.443 24.8331 125.675 24.924C125.914 25.0092 126.173 25.0518 126.451 25.0518C126.656 25.0518 126.835 25.0376 126.988 25.0092C127.141 24.9808 127.261 24.9581 127.346 24.9411L127.806 27.0462C127.658 27.103 127.448 27.1598 127.175 27.2166C126.903 27.2791 126.562 27.3132 126.153 27.3189C125.482 27.3303 124.857 27.2109 124.278 26.9609C123.698 26.7109 123.229 26.3246 122.871 25.8018C122.514 25.2791 122.335 24.6229 122.335 23.8331V10.9212ZM130.386 27.1484V14.0575H132.935V27.1484H130.386ZM131.673 12.0376C131.23 12.0376 130.849 11.8899 130.531 11.5945C130.219 11.2933 130.063 10.9354 130.063 10.5206C130.063 10.1001 130.219 9.74219 130.531 9.44673C130.849 9.1456 131.23 8.99503 131.673 8.99503C132.117 8.99503 132.494 9.1456 132.807 9.44673C133.125 9.74219 133.284 10.1001 133.284 10.5206C133.284 10.9354 133.125 11.2933 132.807 11.5945C132.494 11.8899 132.117 12.0376 131.673 12.0376ZM141.877 27.4126C140.61 27.4126 139.519 27.1257 138.604 26.5518C137.695 25.9723 136.996 25.174 136.508 24.157C136.019 23.1399 135.775 21.9751 135.775 20.6626C135.775 19.3331 136.025 18.1598 136.525 17.1428C137.025 16.12 137.729 15.3217 138.639 14.7479C139.548 14.174 140.619 13.8871 141.852 13.8871C142.846 13.8871 143.732 14.0717 144.511 14.4411C145.289 14.8047 145.917 15.3161 146.394 15.9751C146.877 16.6342 147.164 17.4041 147.255 18.2848H144.775C144.639 17.6712 144.326 17.1428 143.837 16.6996C143.354 16.2564 142.707 16.0348 141.894 16.0348C141.184 16.0348 140.562 16.2223 140.028 16.5973C139.499 16.9666 139.087 17.495 138.792 18.1825C138.496 18.8643 138.349 19.6712 138.349 20.603C138.349 21.5575 138.494 22.3814 138.783 23.0746C139.073 23.7678 139.482 24.3047 140.011 24.6854C140.545 25.0661 141.173 25.2564 141.894 25.2564C142.377 25.2564 142.815 25.1683 143.207 24.9922C143.604 24.8104 143.937 24.5518 144.204 24.2166C144.477 23.8814 144.667 23.478 144.775 23.0064H147.255C147.164 23.853 146.889 24.6087 146.428 25.2734C145.968 25.9382 145.352 26.4609 144.579 26.8416C143.812 27.2223 142.911 27.4126 141.877 27.4126Z" fill="#030303"/>
<path d="M16.0702 6.15039H8.07077C8.07077 10.5634 4.48433 14.1499 0.0712891 14.1499V22.1493C8.91071 22.1493 16.0702 14.9898 16.0702 6.15039Z" fill="#030303"/>
<path d="M24.0712 14.1484V22.1479C19.6582 22.1479 16.0717 25.7344 16.0717 30.1474H8.07227C8.07227 21.308 15.2318 14.1484 24.0712 14.1484Z" fill="#030303" fill-opacity="0.15"/>
</svg>
