<svg width="131" height="37" viewBox="0 0 131 37" fill="none" xmlns="http://www.w3.org/2000/svg">
<path d="M36.0192 11.9609V9.69389H49.5277V11.9609H44.0817V27.1484H41.4567V11.9609H36.0192ZM54.3367 27.4382C53.5071 27.4382 52.7571 27.2848 52.0867 26.978C51.4162 26.6655 50.885 26.2138 50.4929 25.6229C50.1066 25.032 49.9134 24.3075 49.9134 23.4496C49.9134 22.7109 50.0554 22.103 50.3395 21.6257C50.6236 21.1484 51.0071 20.7706 51.4901 20.4922C51.9731 20.2138 52.5128 20.0036 53.1094 19.8615C53.706 19.7195 54.314 19.6115 54.9333 19.5376C55.7174 19.4467 56.3537 19.3729 56.8424 19.3161C57.331 19.2536 57.6861 19.1541 57.9077 19.0178C58.1293 18.8814 58.2401 18.6598 58.2401 18.353V18.2933C58.2401 17.549 58.0299 16.9723 57.6094 16.5632C57.1946 16.1541 56.5753 15.9496 55.7515 15.9496C54.8935 15.9496 54.2174 16.1399 53.7231 16.5206C53.2344 16.8956 52.8964 17.3132 52.7089 17.7734L50.314 17.228C50.5981 16.4325 51.0128 15.7905 51.5583 15.3018C52.1094 14.8075 52.7429 14.4496 53.4589 14.228C54.1748 14.0007 54.9276 13.8871 55.7174 13.8871C56.2401 13.8871 56.7941 13.9496 57.3793 14.0746C57.9702 14.1939 58.5214 14.4155 59.0327 14.7393C59.5498 15.0632 59.9731 15.5263 60.3026 16.1286C60.6321 16.7251 60.7969 17.5007 60.7969 18.4553V27.1484H58.3083V25.3587H58.206C58.0412 25.6882 57.7941 26.0121 57.4645 26.3303C57.135 26.6484 56.7117 26.9126 56.1946 27.1229C55.6776 27.3331 55.0583 27.4382 54.3367 27.4382ZM54.8907 25.3928C55.5952 25.3928 56.1975 25.2536 56.6975 24.9751C57.2032 24.6967 57.5867 24.3331 57.8481 23.8842C58.1151 23.4297 58.2486 22.9439 58.2486 22.4268V20.7393C58.1577 20.8303 57.9816 20.9155 57.7202 20.995C57.4645 21.0689 57.1719 21.1342 56.8424 21.1911C56.5128 21.2422 56.1918 21.2905 55.8793 21.3359C55.5668 21.3757 55.3054 21.4098 55.0952 21.4382C54.6009 21.5007 54.1492 21.6058 53.7401 21.7536C53.3367 21.9013 53.0128 22.1143 52.7685 22.3928C52.5299 22.6655 52.4106 23.0291 52.4106 23.4837C52.4106 24.1143 52.6435 24.5916 53.1094 24.9155C53.5753 25.2337 54.1691 25.3928 54.8907 25.3928ZM74.0008 17.2536L71.6911 17.6626C71.5945 17.3672 71.4411 17.0859 71.2309 16.8189C71.0263 16.5518 70.7479 16.3331 70.3956 16.1626C70.0434 15.9922 69.603 15.907 69.0746 15.907C68.353 15.907 67.7508 16.0689 67.2678 16.3928C66.7848 16.7109 66.5434 17.1229 66.5434 17.6286C66.5434 18.0661 66.7053 18.4183 67.0292 18.6854C67.353 18.9524 67.8758 19.1712 68.5973 19.3416L70.6769 19.8189C71.8814 20.0973 72.7792 20.5263 73.3701 21.1058C73.961 21.6854 74.2564 22.4382 74.2564 23.3643C74.2564 24.1484 74.0292 24.8473 73.5746 25.4609C73.1258 26.0689 72.4979 26.5462 71.6911 26.8928C70.89 27.2393 69.961 27.4126 68.9042 27.4126C67.4383 27.4126 66.2422 27.1001 65.3161 26.4751C64.39 25.8445 63.8218 24.9496 63.6116 23.7905L66.0746 23.4155C66.228 24.0575 66.5434 24.5433 67.0206 24.8729C67.4979 25.1967 68.1201 25.3587 68.8871 25.3587C69.7223 25.3587 70.39 25.1854 70.89 24.8388C71.39 24.4865 71.64 24.0575 71.64 23.5518C71.64 23.1428 71.4866 22.799 71.1797 22.5206C70.8786 22.2422 70.4155 22.032 69.7905 21.8899L67.5746 21.4041C66.353 21.1257 65.4496 20.6825 64.8644 20.0746C64.2848 19.4666 63.9951 18.6967 63.9951 17.7649C63.9951 16.9922 64.211 16.3161 64.6428 15.7365C65.0746 15.157 65.6712 14.7053 66.4326 14.3814C67.1939 14.0518 68.0661 13.8871 69.0491 13.8871C70.4638 13.8871 71.5775 14.1939 72.39 14.8075C73.2025 15.4155 73.7394 16.2308 74.0008 17.2536ZM79.402 22.7081L79.385 19.5973H79.8282L85.0441 14.0575H88.0952L82.1464 20.3643H81.7458L79.402 22.7081ZM77.0583 27.1484V9.69389H79.6066V27.1484H77.0583ZM85.3253 27.1484L80.6378 20.9268L82.3935 19.1456L88.4532 27.1484H85.3253ZM90.6222 27.1484V9.69389H93.1705V16.1797H93.3239C93.4716 15.907 93.6847 15.5916 93.9631 15.2337C94.2415 14.8757 94.6279 14.5632 95.1222 14.2962C95.6165 14.0234 96.2699 13.8871 97.0824 13.8871C98.1392 13.8871 99.0824 14.1541 99.912 14.6882C100.742 15.2223 101.392 15.9922 101.864 16.9979C102.341 18.0036 102.58 19.2138 102.58 20.6286C102.58 22.0433 102.344 23.2564 101.872 24.2678C101.401 25.2734 100.753 26.049 99.929 26.5945C99.1052 27.1342 98.1648 27.4041 97.108 27.4041C96.3125 27.4041 95.662 27.2706 95.1563 27.0036C94.6563 26.7365 94.2642 26.424 93.9802 26.0661C93.6961 25.7081 93.4773 25.3899 93.3239 25.1115H93.1108V27.1484H90.6222ZM93.1194 20.603C93.1194 21.5234 93.2529 22.3303 93.5199 23.0234C93.787 23.7166 94.1733 24.2592 94.679 24.6513C95.1847 25.0376 95.804 25.2308 96.537 25.2308C97.2983 25.2308 97.9347 25.0291 98.4461 24.6257C98.9574 24.2166 99.3438 23.6626 99.6052 22.9638C99.8722 22.2649 100.006 21.478 100.006 20.603C100.006 19.7393 99.875 18.9638 99.6137 18.2763C99.358 17.5888 98.9716 17.0462 98.4546 16.6484C97.9432 16.2507 97.304 16.0518 96.537 16.0518C95.7983 16.0518 95.1733 16.2422 94.662 16.6229C94.1563 17.0036 93.7728 17.5348 93.5114 18.2166C93.25 18.8984 93.1194 19.6939 93.1194 20.603ZM111.083 27.4126C109.793 27.4126 108.683 27.1371 107.751 26.5859C106.825 26.0291 106.109 25.2479 105.603 24.2422C105.103 23.2308 104.853 22.0462 104.853 20.6882C104.853 19.3473 105.103 18.1655 105.603 17.1428C106.109 16.12 106.813 15.3217 107.717 14.7479C108.626 14.174 109.688 13.8871 110.904 13.8871C111.643 13.8871 112.359 14.0092 113.052 14.2536C113.745 14.4979 114.367 14.8814 114.918 15.4041C115.47 15.9268 115.904 16.6058 116.222 17.4411C116.541 18.2706 116.7 19.2791 116.7 20.4666V21.37H106.293V19.4609H114.202C114.202 18.7905 114.066 18.1967 113.793 17.6797C113.521 17.157 113.137 16.745 112.643 16.4439C112.154 16.1428 111.58 15.9922 110.921 15.9922C110.205 15.9922 109.58 16.1683 109.046 16.5206C108.518 16.8672 108.109 17.3217 107.819 17.8842C107.535 18.4411 107.393 19.0462 107.393 19.6996V21.1911C107.393 22.0661 107.546 22.8104 107.853 23.424C108.166 24.0376 108.6 24.5064 109.157 24.8303C109.714 25.1484 110.364 25.3075 111.109 25.3075C111.592 25.3075 112.032 25.2393 112.43 25.103C112.827 24.9609 113.171 24.7507 113.461 24.4723C113.751 24.1939 113.972 23.8501 114.126 23.4411L116.538 23.8757C116.345 24.5859 115.998 25.2081 115.498 25.7422C115.004 26.2706 114.381 26.6825 113.631 26.978C112.887 27.2678 112.038 27.4126 111.083 27.4126ZM129.337 17.2536L127.027 17.6626C126.93 17.3672 126.777 17.0859 126.567 16.8189C126.362 16.5518 126.084 16.3331 125.732 16.1626C125.379 15.9922 124.939 15.907 124.411 15.907C123.689 15.907 123.087 16.0689 122.604 16.3928C122.121 16.7109 121.879 17.1229 121.879 17.6286C121.879 18.0661 122.041 18.4183 122.365 18.6854C122.689 18.9524 123.212 19.1712 123.933 19.3416L126.013 19.8189C127.217 20.0973 128.115 20.5263 128.706 21.1058C129.297 21.6854 129.592 22.4382 129.592 23.3643C129.592 24.1484 129.365 24.8473 128.911 25.4609C128.462 26.0689 127.834 26.5462 127.027 26.8928C126.226 27.2393 125.297 27.4126 124.24 27.4126C122.774 27.4126 121.578 27.1001 120.652 26.4751C119.726 25.8445 119.158 24.9496 118.947 23.7905L121.411 23.4155C121.564 24.0575 121.879 24.5433 122.357 24.8729C122.834 25.1967 123.456 25.3587 124.223 25.3587C125.058 25.3587 125.726 25.1854 126.226 24.8388C126.726 24.4865 126.976 24.0575 126.976 23.5518C126.976 23.1428 126.822 22.799 126.516 22.5206C126.215 22.2422 125.751 22.032 125.126 21.8899L122.911 21.4041C121.689 21.1257 120.786 20.6825 120.2 20.0746C119.621 19.4666 119.331 18.6967 119.331 17.7649C119.331 16.9922 119.547 16.3161 119.979 15.7365C120.411 15.157 121.007 14.7053 121.769 14.3814C122.53 14.0518 123.402 13.8871 124.385 13.8871C125.8 13.8871 126.913 14.1939 127.726 14.8075C128.538 15.4155 129.075 16.2308 129.337 17.2536Z" fill="#030303"/>
<path d="M8.41147 15.25H0.962402V30.1481H15.8605V22.6991C11.7387 22.6991 8.41147 19.3718 8.41147 15.25Z" fill="#030303"/>
<path d="M16.1338 6.14648C11.2487 6.14648 7.3053 10.0899 7.3053 14.975H16.1338V23.8035C21.0189 23.8035 24.9623 19.8601 24.9623 14.975C24.9623 10.1095 21.0189 6.14648 16.1338 6.14648Z" fill="#030303" fill-opacity="0.15"/>
</svg>
