<svg width="119" height="37" viewBox="0 0 119 37" fill="none" xmlns="http://www.w3.org/2000/svg">
<path d="M35.8798 27.1484V9.69389H46.7036V11.9609H38.5133V17.2791H45.9281V19.5376H38.5133V27.1484H35.8798ZM49.7377 27.1484V14.0575H52.286V27.1484H49.7377ZM51.0247 12.0376C50.5815 12.0376 50.2008 11.8899 49.8826 11.5945C49.5701 11.2933 49.4139 10.9354 49.4139 10.5206C49.4139 10.1001 49.5701 9.74219 49.8826 9.44673C50.2008 9.1456 50.5815 8.99503 51.0247 8.99503C51.4678 8.99503 51.8457 9.1456 52.1582 9.44673C52.4764 9.74219 52.6355 10.1001 52.6355 10.5206C52.6355 10.9354 52.4764 11.2933 52.1582 11.5945C51.8457 11.8899 51.4678 12.0376 51.0247 12.0376ZM58.2626 19.3757V27.1484H55.7143V14.0575H58.1603V16.1882H58.3222C58.6234 15.495 59.095 14.9382 59.737 14.5178C60.3847 14.0973 61.2001 13.8871 62.183 13.8871C63.0751 13.8871 63.8563 14.0746 64.5268 14.4496C65.1972 14.8189 65.7171 15.37 66.0864 16.103C66.4558 16.8359 66.6404 17.7422 66.6404 18.8217V27.1484H64.0921V19.1286C64.0921 18.1797 63.845 17.4382 63.3507 16.9041C62.8563 16.3643 62.1774 16.0945 61.3137 16.0945C60.7228 16.0945 60.1972 16.2223 59.737 16.478C59.2825 16.7337 58.9217 17.1087 58.6546 17.603C58.3933 18.0916 58.2626 18.6825 58.2626 19.3757ZM76.1688 14.0575V16.103H69.0183V14.0575H76.1688ZM70.9359 10.9212H73.4842V23.3047C73.4842 23.799 73.558 24.1712 73.7058 24.4212C73.8535 24.6655 74.0438 24.8331 74.2768 24.924C74.5154 25.0092 74.7739 25.0518 75.0524 25.0518C75.2569 25.0518 75.4359 25.0376 75.5893 25.0092C75.7427 24.9808 75.862 24.9581 75.9472 24.9411L76.4075 27.0462C76.2597 27.103 76.0495 27.1598 75.7768 27.2166C75.5041 27.2791 75.1632 27.3132 74.7541 27.3189C74.0836 27.3303 73.4586 27.2109 72.8791 26.9609C72.2995 26.7109 71.8308 26.3246 71.4728 25.8018C71.1149 25.2791 70.9359 24.6229 70.9359 23.8331V10.9212ZM84.4891 27.4126C83.1994 27.4126 82.0886 27.1371 81.1568 26.5859C80.2306 26.0291 79.5147 25.2479 79.009 24.2422C78.509 23.2308 78.259 22.0462 78.259 20.6882C78.259 19.3473 78.509 18.1655 79.009 17.1428C79.5147 16.12 80.2193 15.3217 81.1227 14.7479C82.0318 14.174 83.0943 13.8871 84.3102 13.8871C85.0488 13.8871 85.7647 14.0092 86.4579 14.2536C87.1511 14.4979 87.7732 14.8814 88.3244 15.4041C88.8755 15.9268 89.3102 16.6058 89.6284 17.4411C89.9465 18.2706 90.1056 19.2791 90.1056 20.4666V21.37H79.6994V19.4609H87.6085C87.6085 18.7905 87.4721 18.1967 87.1994 17.6797C86.9266 17.157 86.5431 16.745 86.0488 16.4439C85.5602 16.1428 84.9863 15.9922 84.3272 15.9922C83.6113 15.9922 82.9863 16.1683 82.4522 16.5206C81.9238 16.8672 81.5147 17.3217 81.2249 17.8842C80.9409 18.4411 80.7988 19.0462 80.7988 19.6996V21.1911C80.7988 22.0661 80.9522 22.8104 81.259 23.424C81.5715 24.0376 82.0062 24.5064 82.563 24.8303C83.1198 25.1484 83.7704 25.3075 84.5147 25.3075C84.9977 25.3075 85.438 25.2393 85.8357 25.103C86.2335 24.9609 86.5772 24.7507 86.867 24.4723C87.1568 24.1939 87.3784 23.8501 87.5318 23.4411L89.9437 23.8757C89.7505 24.5859 89.4039 25.2081 88.9039 25.7422C88.4096 26.2706 87.7874 26.6825 87.0374 26.978C86.2931 27.2678 85.4437 27.4126 84.4891 27.4126ZM98.4472 27.4126C97.1802 27.4126 96.0893 27.1257 95.1745 26.5518C94.2654 25.9723 93.5666 25.174 93.0779 24.157C92.5893 23.1399 92.345 21.9751 92.345 20.6626C92.345 19.3331 92.595 18.1598 93.095 17.1428C93.595 16.12 94.2995 15.3217 95.2086 14.7479C96.1177 14.174 97.1887 13.8871 98.4217 13.8871C99.416 13.8871 100.302 14.0717 101.081 14.4411C101.859 14.8047 102.487 15.3161 102.964 15.9751C103.447 16.6342 103.734 17.4041 103.825 18.2848H101.345C101.209 17.6712 100.896 17.1428 100.407 16.6996C99.9245 16.2564 99.2768 16.0348 98.4643 16.0348C97.7541 16.0348 97.1319 16.2223 96.5978 16.5973C96.0694 16.9666 95.6575 17.495 95.362 18.1825C95.0666 18.8643 94.9188 19.6712 94.9188 20.603C94.9188 21.5575 95.0637 22.3814 95.3535 23.0746C95.6433 23.7678 96.0524 24.3047 96.5808 24.6854C97.1149 25.0661 97.7427 25.2564 98.4643 25.2564C98.9472 25.2564 99.3847 25.1683 99.7768 24.9922C100.175 24.8104 100.507 24.5518 100.774 24.2166C101.047 23.8814 101.237 23.478 101.345 23.0064H103.825C103.734 23.853 103.459 24.6087 102.998 25.2734C102.538 25.9382 101.922 26.4609 101.149 26.8416C100.382 27.2223 99.4813 27.4126 98.4472 27.4126ZM108.894 22.7081L108.877 19.5973H109.32L114.536 14.0575H117.587L111.638 20.3643H111.238L108.894 22.7081ZM106.55 27.1484V9.69389H109.099V27.1484H106.55ZM114.817 27.1484L110.13 20.9268L111.885 19.1456L117.945 27.1484H114.817Z" fill="#030303"/>
<g clip-path="url(#clip0_3599_2946)">
<path d="M17.2104 18.209C17.6175 18.0807 18.0542 18.0931 18.4539 18.2443C18.6047 18.3078 18.7556 18.3808 18.911 18.4608C19.0664 18.5408 19.1967 18.6302 19.3384 18.7267C19.6197 18.9258 19.8795 19.1553 20.1133 19.4114C20.6324 19.9744 21.0229 20.6497 21.2561 21.3879C21.518 22.2321 21.6029 23.1238 21.5053 24.0043C21.392 24.9978 21.0865 25.9578 20.607 26.8278C20.307 27.3687 19.8417 27.7922 19.2836 28.0326C19.156 28.0848 19.0245 28.1265 18.8904 28.1573C18.7643 28.1858 18.6356 28.2008 18.5064 28.202C18.2689 28.2089 18.0334 28.1556 17.8207 28.0467C17.6446 27.9481 17.4968 27.8036 17.3921 27.6277C17.2874 27.4518 17.2295 27.2506 17.2241 27.0443C17.2135 26.5918 17.345 26.1479 17.599 25.7784C17.9254 25.2834 18.1581 24.7294 18.2847 24.1455C18.3992 23.6039 18.4116 23.0448 18.3213 22.4984C18.3007 22.369 18.2687 22.2373 18.2367 22.1126C18.2184 22.0514 18.2024 21.9902 18.1841 21.929C18.1659 21.8678 18.1407 21.8067 18.1179 21.7455C18.0721 21.6255 18.0241 21.5102 17.9716 21.3973C17.919 21.2843 17.855 21.1761 17.791 21.0702C17.5403 20.6573 17.2208 20.2933 16.847 19.9949C16.5935 19.8087 16.3963 19.5526 16.2779 19.2561C16.2382 19.1451 16.2334 19.024 16.2642 18.91C16.2949 18.796 16.3597 18.6949 16.4493 18.6208C16.5478 18.5247 16.6604 18.4453 16.783 18.3855C16.9191 18.3115 17.0624 18.2523 17.2104 18.209Z" fill="#030303" fill-opacity="0.15"/>
<path d="M14.5591 22.7566C14.872 23.055 15.0808 23.451 15.1534 23.8837C15.1763 24.0514 15.19 24.2203 15.1945 24.3895C15.1945 24.559 15.1945 24.7331 15.1945 24.9048C15.1945 25.0766 15.1602 25.2507 15.1305 25.4248C15.0999 25.6012 15.0595 25.7756 15.0094 25.9472C14.7928 26.6882 14.4179 27.3699 13.9122 27.9425C13.3332 28.596 12.6268 29.1163 11.8391 29.4695C10.946 29.8728 9.98233 30.0842 9.0071 30.0907C8.40345 30.0923 7.81614 29.8889 7.33624 29.5119C7.1304 29.3631 6.95798 29.1706 6.83061 28.9473C6.70325 28.7241 6.62391 28.4753 6.59796 28.2178C6.59172 28.0112 6.6393 27.8067 6.73576 27.6255C6.83223 27.4443 6.97406 27.2929 7.14653 27.1872C7.32286 27.0747 7.51707 26.995 7.72024 26.9519C7.94509 26.9 8.17616 26.8825 8.40596 26.9001C8.98404 26.9402 9.56424 26.8667 10.1157 26.6837C10.3757 26.5972 10.6275 26.4861 10.8677 26.3519C10.9865 26.2813 11.0962 26.2084 11.2082 26.1331C11.3165 26.0613 11.4203 25.9828 11.5191 25.8978C11.7135 25.7307 11.8918 25.5447 12.0517 25.3425C12.1294 25.2437 12.2025 25.1378 12.2802 25.0342C12.3476 24.9312 12.4094 24.8243 12.4654 24.7142C12.6798 24.2796 12.8191 23.8098 12.8768 23.326C12.8987 23.1475 12.9433 22.9726 13.0094 22.806C13.0354 22.7357 13.0675 22.668 13.1054 22.6037C13.1205 22.5747 13.1381 22.5471 13.158 22.5213C13.1762 22.4931 13.1968 22.4672 13.2151 22.4437C13.29 22.3549 13.3896 22.292 13.5004 22.2634C13.6111 22.2347 13.7278 22.2418 13.8345 22.2837C13.8966 22.3027 13.957 22.3271 14.0151 22.3566C14.0782 22.3879 14.1392 22.4233 14.198 22.4625C14.3279 22.5474 14.4489 22.6459 14.5591 22.7566Z" fill="#030303"/>
<path d="M9.41576 22.6707C9.31892 23.0981 9.08943 23.4813 8.76204 23.7624C8.22592 24.1888 7.60819 24.4935 6.94947 24.6566C6.21778 24.8316 5.45757 24.838 4.72319 24.6754C3.88222 24.4885 3.08922 24.1204 2.39633 23.5954C1.60869 22.9987 0.947585 22.2429 0.453472 21.3742C0.150984 20.8367 0.0303911 20.2111 0.110615 19.5954C0.110615 19.5248 0.131187 19.4542 0.144901 19.386C0.158615 19.3177 0.181472 19.2495 0.202044 19.1836C0.242008 19.0582 0.293279 18.9369 0.355187 18.8213C0.469486 18.6096 0.631816 18.4296 0.828329 18.2966C0.998892 18.1869 1.19495 18.1264 1.396 18.1214C1.59706 18.1165 1.79571 18.1672 1.97119 18.2683C2.15704 18.3651 2.32371 18.4968 2.46262 18.6566C2.53994 18.7389 2.61029 18.8278 2.6729 18.9224C2.7363 19.0226 2.7943 19.1263 2.84662 19.233C3.10018 19.7673 3.45089 20.2465 3.87976 20.6448C4.28013 21.0171 4.74551 21.3077 5.25119 21.5013C5.49018 21.5889 5.73657 21.6535 5.98719 21.6942C6.22892 21.7344 6.4739 21.7502 6.71862 21.7413C6.95622 21.7323 7.19258 21.7016 7.4249 21.6495C7.65316 21.6001 7.87714 21.5316 8.09461 21.4448C8.2567 21.3765 8.42637 21.3291 8.59976 21.3036C8.67548 21.2928 8.7519 21.2881 8.82833 21.2895C8.89133 21.2902 8.95411 21.2973 9.01576 21.3107C9.13013 21.3302 9.23571 21.3861 9.31769 21.4705C9.39967 21.5548 9.45394 21.6635 9.4729 21.7813C9.5233 22.0782 9.5037 22.3832 9.41576 22.6707Z" fill="#030303" fill-opacity="0.15"/>
<path d="M6.91427 18.0307C6.5067 18.1613 6.06853 18.1489 5.66856 17.9954C5.5177 17.9319 5.36913 17.8589 5.21141 17.7789C5.06847 17.6976 4.92962 17.6089 4.79541 17.5131C4.50983 17.3141 4.2455 17.0846 4.00684 16.8284C3.49145 16.2654 3.10487 15.5909 2.87541 14.8542C2.61178 14.0096 2.52607 13.1168 2.62399 12.2354C2.73772 11.242 3.04313 10.2821 3.52227 9.41189C3.82208 8.87574 4.28463 8.4558 4.83884 8.21659C4.96704 8.16433 5.09933 8.1234 5.23427 8.09424C5.35924 8.06326 5.48745 8.04825 5.61599 8.04953C5.85353 8.04197 6.08917 8.09534 6.3017 8.20483C6.47837 8.302 6.62636 8.44636 6.73012 8.62273C6.83389 8.79911 6.8896 9.00099 6.89141 9.20718C6.90234 9.65898 6.77083 10.1023 6.51656 10.4707C6.19499 10.9659 5.96701 11.5191 5.84456 12.1013C5.73007 12.6428 5.71765 13.202 5.80799 13.7484C5.83084 13.8801 5.86056 14.0095 5.89484 14.1342C5.91084 14.1978 5.92913 14.2589 5.94741 14.3201C5.9657 14.3813 5.98856 14.4425 6.01141 14.5013C6.05713 14.6213 6.10513 14.7366 6.15999 14.8495C6.21395 14.9616 6.27345 15.0708 6.33827 15.1766C6.58893 15.5895 6.90852 15.9535 7.28227 16.2519C7.53666 16.4387 7.73471 16.6956 7.8537 16.9931C7.89277 17.1044 7.89703 17.2255 7.86587 17.3394C7.83472 17.4533 7.76972 17.5544 7.67999 17.6284C7.58098 17.7238 7.46846 17.8031 7.34627 17.8636C7.20867 17.9355 7.06379 17.9915 6.91427 18.0307Z" fill="#030303"/>
<path d="M9.56463 13.4849C9.25307 13.1855 9.0445 12.7899 8.97034 12.3578C8.94749 12.1884 8.93606 12.0237 8.9292 11.852C8.92008 11.6795 8.92008 11.5067 8.9292 11.3343C8.94195 11.16 8.96331 10.9864 8.9932 10.8143C9.02278 10.6387 9.06247 10.4651 9.11206 10.2943C9.33092 9.55311 9.70637 8.87093 10.2115 8.29667C10.7898 7.64342 11.4954 7.12308 12.2823 6.76961C13.1791 6.36508 14.1467 6.15368 15.1258 6.14844C15.7288 6.14892 16.315 6.35309 16.7943 6.72961C17.0014 6.8787 17.1747 7.07222 17.3021 7.29685C17.4296 7.52147 17.5082 7.77187 17.5326 8.03079C17.5398 8.23754 17.4928 8.44247 17.3967 8.62418C17.3006 8.80588 17.1589 8.95768 16.9863 9.06373C16.8087 9.17348 16.6149 9.25294 16.4126 9.29903C16.1876 9.34988 15.9566 9.36652 15.7269 9.34844C15.1496 9.30945 14.5703 9.38289 14.0195 9.56491C13.7584 9.65161 13.5059 9.76348 13.2652 9.89903C13.1486 9.96726 13.0366 10.0402 12.9269 10.1155C12.8172 10.1908 12.7143 10.2778 12.6161 10.3508C12.4211 10.5173 12.2427 10.7033 12.0835 10.9061C11.9291 11.1028 11.7929 11.3139 11.6766 11.5367C11.4545 11.9665 11.3075 12.4332 11.2423 12.9155C11.2208 13.0959 11.1778 13.2729 11.1143 13.4426C11.0891 13.5128 11.0577 13.5805 11.0206 13.6449C11.0023 13.6755 10.9841 13.7014 10.9658 13.7273C10.948 13.7534 10.9289 13.7785 10.9086 13.8026C10.8346 13.8918 10.7355 13.9553 10.625 13.9844C10.5146 14.0134 10.3981 14.0066 10.2915 13.9649C10.2292 13.9455 10.1688 13.9203 10.1109 13.8896C10.0481 13.8587 9.98703 13.8242 9.92806 13.7861C9.79811 13.6975 9.67644 13.5967 9.56463 13.4849Z" fill="#030303" fill-opacity="0.15"/>
<path d="M14.7065 13.5715C14.8027 13.1444 15.0314 12.7612 15.3579 12.4797C15.8947 12.0531 16.5133 11.7483 17.1728 11.5856C17.9042 11.4086 18.6646 11.4014 19.3991 11.5644C20.24 11.7514 21.033 12.1194 21.7259 12.6444C22.5107 13.2432 23.1693 13.9996 23.6619 14.868C23.965 15.4044 24.0864 16.0293 24.0071 16.6444C24.0071 16.7174 23.9842 16.788 23.9705 16.8562C23.9568 16.9244 23.9362 16.9927 23.9156 17.0562C23.874 17.1821 23.822 17.3041 23.7602 17.4209C23.6466 17.6324 23.4841 17.8118 23.2871 17.9433C23.1167 18.0533 22.9208 18.1142 22.7197 18.1196C22.5186 18.125 22.3199 18.0746 22.1442 17.9738C21.9593 17.8754 21.7929 17.744 21.6528 17.5856C21.5767 17.502 21.5072 17.4123 21.4448 17.3174C21.3806 17.2173 21.3219 17.1136 21.2688 17.0068C21.0154 16.4724 20.6647 15.9932 20.2356 15.595C19.8363 15.222 19.3706 14.9319 18.8642 14.7409C18.3944 14.5658 17.8961 14.4859 17.3968 14.5056C17.1584 14.5144 16.9213 14.5451 16.6882 14.5974C16.4598 14.6494 16.2359 14.7202 16.0185 14.8091C15.8565 14.8777 15.6868 14.9251 15.5133 14.9503C15.4376 14.9607 15.3612 14.9662 15.2848 14.9668C15.2211 14.9649 15.1577 14.9578 15.0951 14.9456C14.9808 14.9258 14.8754 14.8698 14.7935 14.7855C14.7116 14.7011 14.6572 14.5926 14.6379 14.475C14.589 14.1726 14.6125 13.8624 14.7065 13.5715Z" fill="#030303"/>
</g>
<defs>
<clipPath id="clip0_3599_2946">
<rect width="24" height="24" fill="white" transform="translate(-0.00268555 6.14844)"/>
</clipPath>
</defs>
</svg>
