<svg version="1.2" xmlns="http://www.w3.org/2000/svg" viewBox="0 0 257 257" width="256" height="256">
	<title>webclip</title>
	<style>
		.s0 { fill: #030303 } 
	</style>
	<path class="s0" d="m113.4 187.4l59.8 60.8c29.9-11.1 54.5-32.9 69.2-60.8z"/>
	<path class="s0" d="m188.2 143.7l61-59.6c-11-30.1-32.9-54.8-61-69.5z"/>
	<path class="s0" d="m12.1 75.6c-7.2 16-11.2 33.8-11.2 52.5 0 13.6 2.2 26.8 6.1 39.2l90.5-91.7z"/>
	<path class="s0" d="m181.4 96.6v-85.3c-16-7.2-33.8-11.2-52.5-11.2-13.2 0-26 2-38.1 5.7z"/>
	<path class="s0" d="m256.9 128c0-12.7-1.9-25-5.3-36.7l-91.1 89.2h85.2c7.2-16 11.2-33.8 11.2-52.5z"/>
	<path class="s0" d="m76.5 159.6v85.3c16 7.1 33.7 11.2 52.4 11.2 12.9 0 25.3-2 37.1-5.5z"/>
	<path class="s0" d="m69.6 113.7l-60 60.8c11.3 28.9 32.8 52.7 60 67z"/>
	<path class="s0" d="m143.8 68.7l-60.2-60.4c-29.4 11.2-53.7 32.8-68.1 60.4z"/>
</svg>