<svg version="1.2" xmlns="http://www.w3.org/2000/svg" viewBox="0 0 33 33" width="32" height="32">
	<title>322</title>
	<style>
		.s0 { fill: #030303 } 
	</style>
	<path class="s0" d="m15 23.5l7.5 7.6c3.7-1.4 6.8-4.1 8.6-7.6z"/>
	<path class="s0" d="m24.3 18l7.7-7.4c-1.4-3.8-4.2-6.9-7.7-8.7z"/>
	<path class="s0" d="m2.3 9.5c-0.9 2-1.4 4.2-1.4 6.6q0 2.5 0.8 4.9l11.3-11.5z"/>
	<path class="s0" d="m23.5 12.1v-10.6c-2-0.9-4.2-1.4-6.6-1.4q-2.5 0-4.7 0.7z"/>
	<path class="s0" d="m32.9 16.1q0-2.5-0.6-4.6l-11.4 11.1h10.6c0.9-2 1.4-4.2 1.4-6.5z"/>
	<path class="s0" d="m10.4 20v10.7c2 0.9 4.2 1.4 6.5 1.4q2.4-0.1 4.7-0.7z"/>
	<path class="s0" d="m9.5 14.3l-7.5 7.6c1.4 3.6 4.1 6.5 7.5 8.3z"/>
	<path class="s0" d="m18.8 8.6l-7.5-7.5c-3.7 1.4-6.7 4.1-8.6 7.5z"/>
</svg>